<svg data-v-423bf9ae="" xmlns="http://www.w3.org/2000/svg" viewBox="0 0 622.0152116486055 163" class="iconAbove"><!----><!----><!----><g data-v-423bf9ae="" id="7709dcc1-da12-46ff-8306-8488aa97cb7a" fill="#283543" transform="matrix(5.703421805055199,0,0,5.703421805055199,-0.3422060107632774,84.97718875226417)"><path d="M3.07 13.55L3.07 5.95L0.06 5.95L0.06 3.75L8.83 3.75L8.83 5.95L5.84 5.95L5.84 13.55L3.07 13.55ZM12.98 5.84L12.98 5.84Q14.87 5.84 15.86 6.70L15.86 6.70L15.86 6.70Q16.86 7.56 16.86 9.34L16.86 9.34L16.86 13.55L14.38 13.55L14.38 12.57L14.38 12.57Q13.80 13.68 12.14 13.68L12.14 13.68L12.14 13.68Q11.26 13.68 10.61 13.37L10.61 13.37L10.61 13.37Q9.97 13.06 9.64 12.54L9.64 12.54L9.64 12.54Q9.31 12.01 9.31 11.34L9.31 11.34L9.31 11.34Q9.31 10.26 10.14 9.67L10.14 9.67L10.14 9.67Q10.96 9.07 12.68 9.07L12.68 9.07L14.20 9.07L14.20 9.07Q14.13 7.87 12.59 7.87L12.59 7.87L12.59 7.87Q12.04 7.87 11.48 8.04L11.48 8.04L11.48 8.04Q10.92 8.22 10.53 8.53L10.53 8.53L9.63 6.72L9.63 6.72Q10.26 6.30 11.17 6.07L11.17 6.07L11.17 6.07Q12.07 5.84 12.98 5.84L12.98 5.84ZM12.88 12.00L12.88 12.00Q13.34 12.00 13.69 11.77L13.69 11.77L13.69 11.77Q14.04 11.55 14.20 11.12L14.20 11.12L14.20 10.46L13.05 10.46L13.05 10.46Q11.89 10.46 11.89 11.23L11.89 11.23L11.89 11.23Q11.89 11.58 12.15 11.79L12.15 11.79L12.15 11.79Q12.42 12.00 12.88 12.00L12.88 12.00ZM18.54 13.55L18.54 3.16L21.20 3.16L21.20 13.55L18.54 13.55ZM30.67 9.77L30.67 9.77Q30.67 9.80 30.63 10.43L30.63 10.43L25.12 10.43L25.12 10.43Q25.28 11.02 25.77 11.33L25.77 11.33L25.77 11.33Q26.25 11.65 26.98 11.65L26.98 11.65L26.98 11.65Q27.52 11.65 27.92 11.49L27.92 11.49L27.92 11.49Q28.32 11.34 28.73 10.99L28.73 10.99L30.13 12.45L30.13 12.45Q29.02 13.68 26.89 13.68L26.89 13.68L26.89 13.68Q25.56 13.68 24.56 13.17L24.56 13.17L24.56 13.17Q23.55 12.67 23.00 11.77L23.00 11.77L23.00 11.77Q22.44 10.88 22.44 9.74L22.44 9.74L22.44 9.74Q22.44 8.62 22.98 7.73L22.98 7.73L22.98 7.73Q23.52 6.85 24.47 6.34L24.47 6.34L24.47 6.34Q25.42 5.84 26.61 5.84L26.61 5.84L26.61 5.84Q27.75 5.84 28.67 6.31L28.67 6.31L28.67 6.31Q29.60 6.78 30.13 7.66L30.13 7.66L30.13 7.66Q30.67 8.55 30.67 9.77L30.67 9.77ZM26.63 7.73L26.63 7.73Q26.01 7.73 25.60 8.08L25.60 8.08L25.60 8.08Q25.19 8.43 25.07 9.03L25.07 9.03L28.18 9.03L28.18 9.03Q28.07 8.43 27.66 8.08L27.66 8.08L27.66 8.08Q27.24 7.73 26.63 7.73L26.63 7.73ZM36.85 5.84L36.85 5.84Q38.26 5.84 39.12 6.68L39.12 6.68L39.12 6.68Q39.98 7.52 39.98 9.21L39.98 9.21L39.98 13.55L37.32 13.55L37.32 9.65L37.32 9.65Q37.32 8.09 36.08 8.09L36.08 8.09L36.08 8.09Q35.39 8.09 34.98 8.54L34.98 8.54L34.98 8.54Q34.57 8.99 34.57 9.88L34.57 9.88L34.57 13.55L31.91 13.55L31.91 5.96L34.44 5.96L34.44 6.79L34.44 6.79Q34.89 6.33 35.50 6.08L35.50 6.08L35.50 6.08Q36.12 5.84 36.85 5.84L36.85 5.84ZM46.23 11.38L46.89 13.24L46.89 13.24Q46.55 13.45 46.07 13.57L46.07 13.57L46.07 13.57Q45.58 13.68 45.04 13.68L45.04 13.68L45.04 13.68Q43.55 13.68 42.76 12.95L42.76 12.95L42.76 12.95Q41.96 12.22 41.96 10.78L41.96 10.78L41.96 8.23L40.85 8.23L40.85 6.24L41.96 6.24L41.96 4.27L44.62 4.27L44.62 6.24L46.35 6.24L46.35 8.23L44.62 8.23L44.62 10.75L44.62 10.75Q44.62 11.16 44.84 11.39L44.84 11.39L44.84 11.39Q45.05 11.62 45.42 11.62L45.42 11.62L45.42 11.62Q45.88 11.62 46.23 11.38L46.23 11.38ZM56.92 5.84L56.92 5.84Q58.34 5.84 59.20 6.68L59.20 6.68L59.20 6.68Q60.06 7.52 60.06 9.21L60.06 9.21L60.06 13.55L57.40 13.55L57.40 9.65L57.40 9.65Q57.40 8.09 56.15 8.09L56.15 8.09L56.15 8.09Q55.47 8.09 55.05 8.54L55.05 8.54L55.05 8.54Q54.64 8.99 54.64 9.88L54.64 9.88L54.64 13.55L51.98 13.55L51.98 3.16L54.64 3.16L54.64 6.66L54.64 6.66Q55.08 6.26 55.66 6.05L55.66 6.05L55.66 6.05Q56.25 5.84 56.92 5.84L56.92 5.84ZM67.05 5.96L69.71 5.96L69.71 13.55L67.17 13.55L67.17 12.74L67.17 12.74Q66.75 13.20 66.16 13.44L66.16 13.44L66.16 13.44Q65.58 13.68 64.92 13.68L64.92 13.68L64.92 13.68Q63.45 13.68 62.57 12.81L62.57 12.81L62.57 12.81Q61.70 11.94 61.70 10.21L61.70 10.21L61.70 5.96L64.36 5.96L64.36 9.77L64.36 9.77Q64.36 10.63 64.68 11.02L64.68 11.02L64.68 11.02Q65.00 11.41 65.62 11.41L65.62 11.41L65.62 11.41Q66.25 11.41 66.65 10.97L66.65 10.97L66.65 10.97Q67.05 10.53 67.05 9.62L67.05 9.62L67.05 5.96ZM76.36 5.84L76.36 5.84Q77.77 5.84 78.63 6.68L78.63 6.68L78.63 6.68Q79.49 7.52 79.49 9.21L79.49 9.21L79.49 13.55L76.83 13.55L76.83 9.65L76.83 9.65Q76.83 8.09 75.59 8.09L75.59 8.09L75.59 8.09Q74.90 8.09 74.49 8.54L74.49 8.54L74.49 8.54Q74.07 8.99 74.07 9.88L74.07 9.88L74.07 13.55L71.41 13.55L71.41 5.96L73.95 5.96L73.95 6.79L73.95 6.79Q74.40 6.33 75.01 6.08L75.01 6.08L75.01 6.08Q75.63 5.84 76.36 5.84L76.36 5.84ZM85.74 11.38L86.39 13.24L86.39 13.24Q86.06 13.45 85.58 13.57L85.58 13.57L85.58 13.57Q85.09 13.68 84.55 13.68L84.55 13.68L84.55 13.68Q83.06 13.68 82.26 12.95L82.26 12.95L82.26 12.95Q81.47 12.22 81.47 10.78L81.47 10.78L81.47 8.23L80.36 8.23L80.36 6.24L81.47 6.24L81.47 4.27L84.13 4.27L84.13 6.24L85.86 6.24L85.86 8.23L84.13 8.23L84.13 10.75L84.13 10.75Q84.13 11.16 84.34 11.39L84.34 11.39L84.34 11.39Q84.56 11.62 84.92 11.62L84.92 11.62L84.92 11.62Q85.39 11.62 85.74 11.38L85.74 11.38ZM95.17 9.77L95.17 9.77Q95.17 9.80 95.13 10.43L95.13 10.43L89.61 10.43L89.61 10.43Q89.78 11.02 90.27 11.33L90.27 11.33L90.27 11.33Q90.75 11.65 91.48 11.65L91.48 11.65L91.48 11.65Q92.02 11.65 92.42 11.49L92.42 11.49L92.42 11.49Q92.82 11.34 93.23 10.99L93.23 10.99L94.63 12.45L94.63 12.45Q93.52 13.68 91.39 13.68L91.39 13.68L91.39 13.68Q90.06 13.68 89.05 13.17L89.05 13.17L89.05 13.17Q88.05 12.67 87.49 11.77L87.49 11.77L87.49 11.77Q86.94 10.88 86.94 9.74L86.94 9.74L86.94 9.74Q86.94 8.62 87.48 7.73L87.48 7.73L87.48 7.73Q88.02 6.85 88.97 6.34L88.97 6.34L88.97 6.34Q89.92 5.84 91.11 5.84L91.11 5.84L91.11 5.84Q92.25 5.84 93.17 6.31L93.17 6.31L93.17 6.31Q94.09 6.78 94.63 7.66L94.63 7.66L94.63 7.66Q95.17 8.55 95.17 9.77L95.17 9.77ZM91.13 7.73L91.13 7.73Q90.51 7.73 90.10 8.08L90.10 8.08L90.10 8.08Q89.68 8.43 89.57 9.03L89.57 9.03L92.68 9.03L92.68 9.03Q92.57 8.43 92.16 8.08L92.16 8.08L92.16 8.08Q91.74 7.73 91.13 7.73L91.13 7.73ZM98.94 6.87L98.94 6.87Q99.34 6.36 100.00 6.10L100.00 6.10L100.00 6.10Q100.65 5.84 101.49 5.84L101.49 5.84L101.49 8.23L101.49 8.23Q101.12 8.19 100.88 8.19L100.88 8.19L100.88 8.19Q100.03 8.19 99.55 8.65L99.55 8.65L99.55 8.65Q99.06 9.11 99.06 10.07L99.06 10.07L99.06 13.55L96.40 13.55L96.40 5.96L98.94 5.96L98.94 6.87ZM105.36 13.68L105.36 13.68Q104.41 13.68 103.49 13.46L103.49 13.46L103.49 13.46Q102.56 13.24 102.00 12.89L102.00 12.89L102.80 11.07L102.80 11.07Q103.32 11.40 104.03 11.58L104.03 11.58L104.03 11.58Q104.75 11.77 105.45 11.77L105.45 11.77L105.45 11.77Q106.09 11.77 106.36 11.64L106.36 11.64L106.36 11.64Q106.64 11.51 106.64 11.26L106.64 11.26L106.64 11.26Q106.64 11.00 106.31 10.90L106.31 10.90L106.31 10.90Q105.98 10.79 105.27 10.70L105.27 10.70L105.27 10.70Q104.36 10.58 103.72 10.40L103.72 10.40L103.72 10.40Q103.08 10.22 102.62 9.73L102.62 9.73L102.62 9.73Q102.16 9.24 102.16 8.36L102.16 8.36L102.16 8.36Q102.16 7.63 102.59 7.06L102.59 7.06L102.59 7.06Q103.03 6.50 103.86 6.17L103.86 6.17L103.86 6.17Q104.69 5.84 105.85 5.84L105.85 5.84L105.85 5.84Q106.68 5.84 107.49 6.01L107.49 6.01L107.49 6.01Q108.30 6.17 108.85 6.48L108.85 6.48L108.05 8.29L108.05 8.29Q107.04 7.73 105.87 7.73L105.87 7.73L105.87 7.73Q105.24 7.73 104.94 7.87L104.94 7.87L104.94 7.87Q104.65 8.02 104.65 8.26L104.65 8.26L104.65 8.26Q104.65 8.53 104.97 8.63L104.97 8.63L104.97 8.63Q105.29 8.74 106.04 8.85L106.04 8.85L106.04 8.85Q106.97 8.99 107.59 9.17L107.59 9.17L107.59 9.17Q108.21 9.35 108.66 9.83L108.66 9.83L108.66 9.83Q109.12 10.32 109.12 11.19L109.12 11.19L109.12 11.19Q109.12 11.90 108.68 12.47L108.68 12.47L108.68 12.47Q108.25 13.03 107.40 13.36L107.40 13.36L107.40 13.36Q106.55 13.68 105.36 13.68L105.36 13.68Z"></path></g><defs data-v-423bf9ae=""><linearGradient data-v-423bf9ae="" gradientTransform="rotate(25)" id="a9e285de-1389-4761-ae39-9baf6421b167" x1="0%" y1="0%" x2="100%" y2="0%"><stop data-v-423bf9ae="" offset="0%" style="stop-color: rgb(208, 233, 13); stop-opacity: 1;"></stop><stop data-v-423bf9ae="" offset="100%" style="stop-color: rgb(21, 54, 241); stop-opacity: 1;"></stop></linearGradient></defs><g data-v-423bf9ae="" id="9496c071-b162-4f80-8db8-2e6a45487374" transform="matrix(2.852072528086791,0,0,2.852072528086791,266.3618362227754,-0.41116010653409063)" stroke="none" fill="url(#a9e285de-1389-4761-ae39-9baf6421b167)"><path d="M16 23.787L8.102 16 16 8.213 23.898 16 16 23.787zM9.525 16L16 22.383 22.475 16 16 9.617 9.525 16z"></path><path d="M15.915 31.778L-.005 16.084 16.085.222l15.92 15.694-16.09 15.862zM1.419 16.084l14.496 14.29 14.666-14.458-14.496-14.29L1.419 16.084z"></path><path d="M15.5.924h1v30.152h-1z"></path></g><!----></svg>